<svg id="Camada_1" data-name="Camada 1" xmlns="http://www.w3.org/2000/svg" viewBox="0 0 489.1 391.11"><defs><style>.cls-1{fill:#232323;}.cls-2{fill:#ded9bf;}.cls-3{fill:#dbd6bc;}</style></defs><title>3barber-logo</title><path class="cls-1" d="M297.64,634.16q-121,0-242,.06c-2.08,0-2.54-.5-2.54-2.71q.07-192.85,0-385.69c0-2.21.46-2.71,2.54-2.71q242,.09,484,0c2.07,0,2.54.5,2.54,2.71q-.09,192.84,0,385.69c0,2.21-.47,2.71-2.54,2.71Q418.65,634.12,297.64,634.16Z" transform="translate(-53.09 -243.11)"/><path class="cls-2" d="M310.09,471.46a49,49,0,0,0-6.6.86c-2.7.69-4.65-.07-6.74-2-11.72-10.8-23.6-21.41-35.34-32.18-1.73-1.6-2.52-1.47-3.56.65-1.76,3.56-3.73,7-5.64,10.48-2.45,4.44-6.19,5.78-9.69,3.52s-4.06-6.28-1.71-10.59q22.74-41.81,45.53-83.58c1.08-2,1.31-3.44.16-5.56-2.44-4.49-2-8.84.68-12.06.56-.67,1.1-1.87,2.16-.64.74.85,1.66,1.63.53,3-1.74,2-1.79,4.42-.91,6.9.73,2,1.66,3.31,4.18,3.21,4.64-.19,7.62,4.85,5.89,9.51a25.2,25.2,0,0,1-1.7,3.36c-10.86,20-21.66,40-32.65,59.87-1.51,2.74-1,3.83,1.31,5.37,8.37,5.54,16.64,11.26,24.87,17,1.66,1.17,2.79,1.12,4.41-.08q12.36-9.18,24.9-18.08c1.77-1.25,1.79-2.12.67-3.89-6.86-10.83-13.59-21.76-20.42-32.61a3.72,3.72,0,0,1-.31-4.22c2.49-5.1,1.78-10.28-.43-15.31-.39-.89-1-1.7-1.28-2.61a2.87,2.87,0,0,1,1.34-3.25c.94-.62,1.24.84,1.64,1.48q15,24,30,48.15c1.33,2.16,2.24,2.67,4.36,1,4.07-3.21,8.38-6.07,12.6-9.06.43-.3.91-.91,1.47-.45s.18,1.08.09,1.66c-.3,2-1.64,3.22-2.95,4.48l-40.74,39c-2.54,2.44-2.54,2.45.3,4.39,9.22,6.33,18.46,12.61,27.63,19,1.57,1.09,2.49,1.24,3.86-.46,4.18-5.15,9.58-6.59,15.52-4.42s9,6.84,9.53,13.49c.23,3,.7,5.86,2.55,8.26a5.58,5.58,0,0,0,4.06,2.26c1.64.14,1.65,1.19,1.59,2.45-.07,1.86-1.37,1.27-2.24,1.15a8.86,8.86,0,0,1-6.31-3.83c-.87-1.26-1.32-1.74-2.53-.16-4.56,5.91-10.95,7.61-17.07,4.81s-9.22-8.84-8.4-16.29a3.31,3.31,0,0,0-1.76-3.76c-5-2.94-9.5-6.76-15-8.73A23.9,23.9,0,0,0,310.09,471.46Zm49.51,16.2c0-6.46-4.84-11.51-10.92-11.5s-10.8,5.17-10.77,11.66,4.86,11.55,10.92,11.5S359.64,494.14,359.6,487.66Zm-66.21-27.38a2.37,2.37,0,0,0,2-2.49,2.2,2.2,0,1,0-4.4-.05C291,459.27,291.84,460,293.39,460.28ZM246,444.54c-1.12.2-2,.77-2,2.06a1.91,1.91,0,0,0,2.07,2.18,1.88,1.88,0,0,0,1.8-2.16A2,2,0,0,0,246,444.54Zm47-82.06a2,2,0,0,0,1.87-2.16,1.9,1.9,0,0,0-1.93-2.06,2,2,0,0,0-2,2.32A1.92,1.92,0,0,0,293,362.48Z" transform="translate(-53.09 -243.11)"/><path class="cls-3" d="M284.84,472.68c-6.69-1.27-13.27-1.18-19.33,2.55-4.15,2.54-8.1,5.45-12.18,8.12-1.25.82-1,1.86-.85,3.06,1.33,8.76-3.39,16.08-11.51,17.86-7.51,1.64-14.74-3.51-16.58-11.82a15.89,15.89,0,0,1,7-16.61,13.35,13.35,0,0,1,17,2.53c1.93,2.23,3.1,2,5.17.43,8.15-6.1,16.45-11.95,24.62-18,1.54-1.14,2.6-1.33,4,.16,2,2.06,4.23,3.81,6.27,5.8.82.79,2.64,1.48,2,2.73-.82,1.6-2.14,3.24-4.26,3.28C285.76,472.78,285.3,472.71,284.84,472.68Zm-35.49,16.78c.13-6.28-4.74-11.71-10.7-11.9s-11,5.08-11.15,11.43,4.75,11.71,10.7,11.89S249.21,495.79,249.35,489.46Z" transform="translate(-53.09 -243.11)"/><path class="cls-2" d="M346.37,443.61a6.69,6.69,0,0,1-3.06,6.09c-5.53,4.13-5.51,4.15-9.2-1.77-1.68-2.7-3.3-5.44-5.06-8.08-.86-1.29-.82-2.16.35-3.21,2.39-2.15,4.67-4.44,7-6.66.66-.62,1.35-1.6,2.2-.2,2.45,4,4.93,8,7.33,12.1A5,5,0,0,1,346.37,443.61Z" transform="translate(-53.09 -243.11)"/><path class="cls-3" d="M249.11,420.86c-.58,1.23-1,2.83-2.18,3.53-.89.5-1.54-.79-2.22-1.38-2.12-1.86-4.21-3.77-6.29-5.68a14.07,14.07,0,0,1-2-2.05c-.79-1.09-1.81-2.73-1.09-3.68,1-1.28,2.06.48,3,1.06,3.15,2,6.22,4.14,9.29,6.25C248.28,419.36,249.22,419.61,249.11,420.86Z" transform="translate(-53.09 -243.11)"/></svg>